<svg xmlns="http://www.w3.org/2000/svg" viewBox="0 0 920 260" role="img" aria-labelledby="title desc">
  <title id="title">Distribuições contínuas</title><desc id="desc">Densidade normal, densidade exponencial e CDF.</desc>
  <style>text{font-family:system-ui,sans-serif;fill:#174438}.t{font-size:16px;font-weight:700}.s{font-size:12px;fill:#587168}.a{stroke:#8ba89d;stroke-width:1.5}.g{stroke:#dcece5}.f{fill:#c8e8db}.l{fill:none;stroke:#1f7b63;stroke-width:3}</style>
  <rect width="920" height="260" rx="9" fill="#fff"/>
  <g transform="translate(28 30)"><text class="t">Densidade normal</text><text class="s" x="0" y="20">área sob a curva = probabilidade</text><path class="g" d="M0 75H240M0 125H240M0 175H240"/><path class="a" d="M0 180H250M0 180V48"/><path class="f" d="M8 179C52 179 67 160 91 105C110 63 123 53 136 53C150 53 163 63 182 105C206 160 220 179 240 179Z"/><path class="l" d="M8 179C52 179 67 160 91 105C110 63 123 53 136 53C150 53 163 63 182 105C206 160 220 179 240 179"/><text class="s" x="128" y="201">μ</text></g>
  <g transform="translate(338 30)"><text class="t">Densidade exponencial</text><text class="s" x="0" y="20">tempo até o próximo evento</text><path class="g" d="M0 75H240M0 125H240M0 175H240"/><path class="a" d="M0 180H250M0 180V48"/><path class="f" d="M2 55C29 75 51 112 84 139C119 167 161 177 240 179L240 180H2Z"/><path class="l" d="M2 55C29 75 51 112 84 139C119 167 161 177 240 179"/><text class="s" x="-4" y="201">0</text></g>
  <g transform="translate(648 30)"><text class="t">CDF</text><text class="s" x="0" y="20">F(x) = P(X ≤ x)</text><path class="g" d="M0 75H240M0 125H240M0 175H240"/><path class="a" d="M0 180H250M0 180V48"/><path class="l" d="M3 177C41 177 69 171 95 147C121 123 132 96 155 78C178 61 202 54 240 52"/><text class="s" x="-15" y="58">1</text><text class="s" x="-15" y="180">0</text></g>
</svg>
